<svg width="45" height="38" viewBox="0 0 45 38" fill="none" xmlns="http://www.w3.org/2000/svg">
<path d="M5.44844 0.12331C4.92422 0.355341 4.89844 0.46706 4.89844 2.29753V3.95612H0.524219L0.0429687 4.36862L0.0171875 6.88659C0 8.68268 0.0257812 9.47331 0.0945312 9.64518C0.257812 10.0491 0.558594 10.1436 1.63281 10.1436H2.57812V31.6967L1.53828 31.7311L0.498437 31.7569L0.249219 32.0405L0 32.3155V34.8421C0 37.2483 0.00859375 37.3686 0.171875 37.5835C0.275 37.7124 0.498437 37.8499 0.670312 37.9014C1.10859 38.0217 42.8828 38.0217 43.3211 37.9014C43.9656 37.721 43.957 37.7639 43.9828 34.8936L44.0086 32.3241L43.7508 32.0405L43.5016 31.7569L42.4617 31.7311L41.4219 31.6967V10.1436H42.3672C43.4414 10.1436 43.7422 10.0491 43.9055 9.64518C43.9742 9.47331 44 8.68268 43.9828 6.88659L43.957 4.36862L43.4758 3.95612H39.1016V2.29753C39.1016 0.905341 39.0758 0.613153 38.9641 0.441278C38.6633 0.0115909 38.5602 0.00299712 34.0141 0.00299712C31.3328 0.00299712 29.657 0.0373721 29.4508 0.0975284C28.8836 0.252216 28.832 0.415497 28.8062 2.29753L28.7719 3.95612H27.1648C25.575 3.95612 25.5406 3.95612 25.3258 4.16237C24.8875 4.56628 24.9391 5.14206 25.4375 5.47722L25.7211 5.67487H42.2812V8.42487H1.71875V5.67487H18.2789L18.5625 5.47722C19.0609 5.14206 19.1125 4.56628 18.6742 4.16237C18.4594 3.95612 18.425 3.95612 16.8352 3.95612H15.2281L15.1937 2.29753C15.168 0.415497 15.1164 0.252216 14.5492 0.0975284C14.025 -0.0485654 5.78359 -0.0227841 5.44844 0.12331ZM13.4492 3.91315L10.0375 3.93893L6.61719 3.95612V1.72175L10.0375 1.73893L13.4492 1.76472V3.91315ZM37.3828 3.95612L33.9711 3.93893L30.5508 3.91315L30.525 2.93347C30.5164 2.39206 30.525 1.89362 30.5422 1.83347C30.5766 1.74753 31.2641 1.72175 33.9883 1.72175H37.3828V3.95612ZM39.7031 31.7139H4.29687V10.1436H39.7031V31.7139ZM42.2812 36.2686H1.71875V33.4327H42.2812V36.2686Z" fill="#D9D9D9"/>
<path d="M5.44844 0.12331C4.92422 0.355341 4.89844 0.46706 4.89844 2.29753V3.95612H0.524219L0.0429687 4.36862L0.0171875 6.88659C0 8.68268 0.0257812 9.47331 0.0945312 9.64518C0.257812 10.0491 0.558594 10.1436 1.63281 10.1436H2.57812V31.6967L1.53828 31.7311L0.498437 31.7569L0.249219 32.0405L0 32.3155V34.8421C0 37.2483 0.00859375 37.3686 0.171875 37.5835C0.275 37.7124 0.498437 37.8499 0.670312 37.9014C1.10859 38.0217 42.8828 38.0217 43.3211 37.9014C43.9656 37.721 43.957 37.7639 43.9828 34.8936L44.0086 32.3241L43.7508 32.0405L43.5016 31.7569L42.4617 31.7311L41.4219 31.6967V10.1436H42.3672C43.4414 10.1436 43.7422 10.0491 43.9055 9.64518C43.9742 9.47331 44 8.68268 43.9828 6.88659L43.957 4.36862L43.4758 3.95612H39.1016V2.29753C39.1016 0.905341 39.0758 0.613153 38.9641 0.441278C38.6633 0.0115909 38.5602 0.00299712 34.0141 0.00299712C31.3328 0.00299712 29.657 0.0373721 29.4508 0.0975284C28.8836 0.252216 28.832 0.415497 28.8062 2.29753L28.7719 3.95612H27.1648C25.575 3.95612 25.5406 3.95612 25.3258 4.16237C24.8875 4.56628 24.9391 5.14206 25.4375 5.47722L25.7211 5.67487H42.2812V8.42487H1.71875V5.67487H18.2789L18.5625 5.47722C19.0609 5.14206 19.1125 4.56628 18.6742 4.16237C18.4594 3.95612 18.425 3.95612 16.8352 3.95612H15.2281L15.1937 2.29753C15.168 0.415497 15.1164 0.252216 14.5492 0.0975284C14.025 -0.0485654 5.78359 -0.0227841 5.44844 0.12331ZM13.4492 3.91315L10.0375 3.93893L6.61719 3.95612V1.72175L10.0375 1.73893L13.4492 1.76472V3.91315ZM37.3828 3.95612L33.9711 3.93893L30.5508 3.91315L30.525 2.93347C30.5164 2.39206 30.525 1.89362 30.5422 1.83347C30.5766 1.74753 31.2641 1.72175 33.9883 1.72175H37.3828V3.95612ZM39.7031 31.7139H4.29687V10.1436H39.7031V31.7139ZM42.2812 36.2686H1.71875V33.4327H42.2812V36.2686Z" fill="#33FF99"/>
<path d="M22.2234 12.1374C21.9914 12.3522 16.3539 21.8999 16.2766 22.235C16.2078 22.5014 16.3797 22.9053 16.6375 23.0772C16.8008 23.1803 17.1531 23.2061 18.6055 23.2061H20.3672V26.1624C20.3672 28.0444 20.4016 29.2046 20.4617 29.3764C20.6594 29.935 21.3727 30.0983 21.8109 29.6686C21.9484 29.5397 23.332 27.271 24.8875 24.6241C28.0156 19.2788 27.9727 19.3819 27.4313 18.9007L27.1563 18.6514H23.6414L23.5899 12.4467L23.3063 12.1975C22.9539 11.8882 22.5328 11.8624 22.2234 12.1374ZM21.9828 20.0007C21.9914 20.0178 22.1031 20.0952 22.232 20.1725C22.4211 20.3014 22.7219 20.3358 23.9078 20.3702L25.3516 20.4132L23.7359 23.1546L22.1289 25.896L22.1117 24.0139C22.0859 22.0546 22.043 21.8311 21.6992 21.6335C21.5961 21.5733 20.9516 21.5132 20.0922 21.4874L18.6656 21.4444L20.0492 19.0811C20.8141 17.7749 21.5359 16.5632 21.6563 16.3741L21.8711 16.0303L21.9141 18.0069C21.9399 19.0897 21.9742 19.9921 21.9828 20.0007Z" fill="#D9D9D9"/>
<path d="M22.2234 12.1374C21.9914 12.3522 16.3539 21.8999 16.2766 22.235C16.2078 22.5014 16.3797 22.9053 16.6375 23.0772C16.8008 23.1803 17.1531 23.2061 18.6055 23.2061H20.3672V26.1624C20.3672 28.0444 20.4016 29.2046 20.4617 29.3764C20.6594 29.935 21.3727 30.0983 21.8109 29.6686C21.9484 29.5397 23.332 27.271 24.8875 24.6241C28.0156 19.2788 27.9727 19.3819 27.4313 18.9007L27.1563 18.6514H23.6414L23.5899 12.4467L23.3063 12.1975C22.9539 11.8882 22.5328 11.8624 22.2234 12.1374ZM21.9828 20.0007C21.9914 20.0178 22.1031 20.0952 22.232 20.1725C22.4211 20.3014 22.7219 20.3358 23.9078 20.3702L25.3516 20.4132L23.7359 23.1546L22.1289 25.896L22.1117 24.0139C22.0859 22.0546 22.043 21.8311 21.6992 21.6335C21.5961 21.5733 20.9516 21.5132 20.0922 21.4874L18.6656 21.4444L20.0492 19.0811C20.8141 17.7749 21.5359 16.5632 21.6563 16.3741L21.8711 16.0303L21.9141 18.0069C21.9399 19.0897 21.9742 19.9921 21.9828 20.0007Z" fill="#33FF99"/>
<path d="M33.4125 18.5569C33.1547 18.7889 33.1289 18.8491 33.1031 19.4592L33.0688 20.1124H32.4672C31.9172 20.1124 31.8484 20.1382 31.6164 20.3616C31.1695 20.8171 31.3328 21.5217 31.943 21.7538C32.0547 21.7967 32.3641 21.8311 32.6219 21.8311H33.0859V22.3124C33.0859 23.1374 33.4039 23.5499 34.0399 23.5499C34.2117 23.5499 34.3836 23.4639 34.5555 23.3007C34.7789 23.0686 34.8047 22.9999 34.8047 22.4499V21.8483L35.4063 21.8139C35.8359 21.7967 36.068 21.7366 36.2399 21.6077C36.6524 21.2983 36.7039 20.7913 36.3602 20.3616C36.2227 20.1811 36.1024 20.1467 35.518 20.1124L34.8477 20.0694L34.8219 19.5538C34.7961 18.7975 34.7445 18.6686 34.4352 18.4796C34.0484 18.2389 33.7391 18.2647 33.4125 18.5569Z" fill="#D9D9D9"/>
<path d="M33.4125 18.5569C33.1547 18.7889 33.1289 18.8491 33.1031 19.4592L33.0688 20.1124H32.4672C31.9172 20.1124 31.8484 20.1382 31.6164 20.3616C31.1695 20.8171 31.3328 21.5217 31.943 21.7538C32.0547 21.7967 32.3641 21.8311 32.6219 21.8311H33.0859V22.3124C33.0859 23.1374 33.4039 23.5499 34.0399 23.5499C34.2117 23.5499 34.3836 23.4639 34.5555 23.3007C34.7789 23.0686 34.8047 22.9999 34.8047 22.4499V21.8483L35.4063 21.8139C35.8359 21.7967 36.068 21.7366 36.2399 21.6077C36.6524 21.2983 36.7039 20.7913 36.3602 20.3616C36.2227 20.1811 36.1024 20.1467 35.518 20.1124L34.8477 20.0694L34.8219 19.5538C34.7961 18.7975 34.7445 18.6686 34.4352 18.4796C34.0484 18.2389 33.7391 18.2647 33.4125 18.5569Z" fill="#33FF99"/>
<path d="M7.69142 20.3186C7.28751 20.7225 7.32189 21.2811 7.76876 21.6077C7.9836 21.771 8.14688 21.7882 9.82267 21.8139C10.8281 21.8311 11.7649 21.8225 11.9109 21.7882C12.607 21.6592 12.8734 20.8514 12.3836 20.3616L12.1344 20.1124H7.89767L7.69142 20.3186Z" fill="#D9D9D9"/>
<path d="M7.69142 20.3186C7.28751 20.7225 7.32189 21.2811 7.76876 21.6077C7.9836 21.771 8.14688 21.7882 9.82267 21.8139C10.8281 21.8311 11.7649 21.8225 11.9109 21.7882C12.607 21.6592 12.8734 20.8514 12.3836 20.3616L12.1344 20.1124H7.89767L7.69142 20.3186Z" fill="#33FF99"/>
<path d="M21.4586 4.16237C21.0203 4.57487 21.0719 5.14206 21.5789 5.48581C21.9484 5.74362 22.3008 5.69206 22.6274 5.33112C22.7906 5.15065 22.8594 4.97878 22.8594 4.76394C22.8594 4.06784 21.9656 3.68972 21.4586 4.16237Z" fill="#D9D9D9"/>
<path d="M21.4586 4.16237C21.0203 4.57487 21.0719 5.14206 21.5789 5.48581C21.9484 5.74362 22.3008 5.69206 22.6274 5.33112C22.7906 5.15065 22.8594 4.97878 22.8594 4.76394C22.8594 4.06784 21.9656 3.68972 21.4586 4.16237Z" fill="#33FF99"/>
</svg>
