<svg width="45" height="45" viewBox="0 0 45 45" fill="none" xmlns="http://www.w3.org/2000/svg">
<path d="M16.8545 0.698242L16.625 0.918555V11.7689L16.8545 11.9893L17.0748 12.2188H27.9252L28.1455 11.9893L28.375 11.7689V0.918555L28.1455 0.698242L27.9252 0.46875H17.0748L16.8545 0.698242ZM26.9062 10.75H18.0937V1.9375H26.9062V10.75Z" fill="white"/>
<path d="M19.5625 4.875H21.0312V3.40625H19.5625V4.875Z" fill="white"/>
<path d="M19.5625 9.28125H21.0312V6.34375H19.5625V9.28125Z" fill="white"/>
<path d="M5.79296 10.1441C3.81014 10.5664 2.08436 11.8791 1.21229 13.6141C0.652332 14.7432 0.514636 15.3582 0.523816 16.7168C0.532996 17.699 0.569714 17.9744 0.771668 18.5986C1.1205 19.6543 1.59784 20.4162 2.44237 21.2607C3.64491 22.4633 4.98514 23.0875 6.60995 23.2068C10.5939 23.4822 13.917 20.1775 13.6508 16.1844C13.5957 15.2021 13.256 14.0914 12.7603 13.2469C12.3105 12.4941 11.108 11.31 10.3553 10.8877C8.99667 10.135 7.20663 9.85039 5.79296 10.1441ZM8.05116 11.5853C8.93241 11.7414 10.0064 12.3105 10.6765 12.9807C11.7047 14.0088 12.1728 15.1379 12.1728 16.625C12.1728 18.0937 11.7047 19.2412 10.6949 20.2418C9.69432 21.2516 8.54686 21.7197 7.07811 21.7197C5.591 21.7197 4.4619 21.2516 3.43378 20.2234C1.26737 18.057 1.51522 14.4219 3.9662 12.5676C5.16874 11.6496 6.57323 11.3191 8.05116 11.5853Z" fill="white"/>
<path d="M6.16014 13.0816C5.93065 13.1459 5.6369 13.2561 5.49921 13.3295L5.25136 13.458L5.60018 14.0547C5.80214 14.3943 6.00409 14.6422 6.07753 14.633C6.15096 14.6146 6.39882 14.5596 6.64667 14.4953L7.07811 14.376V12.9531L6.83026 12.9623C6.68339 12.9623 6.38964 13.0174 6.16014 13.0816Z" fill="white"/>
<path d="M3.67245 15.2664C3.49803 15.6611 3.46132 15.9182 3.45214 16.6342C3.45214 17.4603 3.4705 17.543 3.79178 18.1947C3.97538 18.5619 4.25077 18.9842 4.39764 19.1311L4.66386 19.3789L5.61854 18.2773L5.35233 17.9377C4.87499 17.3227 4.75565 16.625 5.0035 15.909C5.15956 15.4867 5.17792 15.5143 4.40682 15.0828L3.88358 14.7891L3.67245 15.2664Z" fill="white"/>
<path d="M37.5088 13.4396C31.0004 17.1115 31.1564 17.0014 31.3676 17.6072C31.441 17.8275 32.3957 18.3967 37.5088 21.2791C41.3551 23.4455 43.6592 24.6939 43.8244 24.7031C43.9805 24.7031 44.1732 24.6113 44.3017 24.4736L44.5312 24.2533V10.4654L44.3017 10.2451C44.1732 10.1074 43.9805 10.0156 43.8244 10.0156C43.6592 10.0248 41.3551 11.2732 37.5088 13.4396ZM43.0441 20.0215L43.0166 22.6744L38.3166 20.0398C35.7279 18.5895 33.6166 17.3869 33.6166 17.3594C33.6166 17.3318 35.7279 16.1293 38.3166 14.6789L43.0166 12.0443L43.0441 14.6973C43.0533 16.166 43.0533 18.5527 43.0441 20.0215Z" fill="white"/>
<path d="M39.3906 15.6244C38.4543 16.1844 37.6557 16.6709 37.6189 16.7168C37.5455 16.7811 38.1697 17.9102 38.289 17.9469C38.39 17.9652 41.8691 15.8447 41.8691 15.7621C41.8691 15.652 41.2265 14.6055 41.1531 14.6055C41.1164 14.6055 40.3269 15.0645 39.3906 15.6244Z" fill="white"/>
<path d="M21.2148 15.3031C19.59 15.6519 18.0203 16.8728 17.2767 18.3691C16.9096 19.1311 16.6342 20.1316 16.625 20.7283C16.625 20.9486 16.5791 21.0312 16.4781 21.0312C15.4867 21.0312 14.4219 22.1787 14.4219 23.2344C14.4219 24.3084 15.4867 25.4375 16.5057 25.4375C16.6433 25.4375 16.6984 25.5477 16.7994 25.9975C16.9922 26.9705 17.4971 27.9252 18.259 28.7605L18.5711 29.1094H16.983C14.6973 29.1094 13.7701 29.3848 12.6777 30.367C11.8516 31.1014 11.5853 31.6246 10.75 34.1215C10.2726 35.526 9.96054 36.3338 9.91464 36.2603C9.75858 35.9758 8.5285 32.6068 8.39999 32.0928C8.0787 30.8719 7.37186 29.9355 6.38964 29.4674C6.08671 29.3205 5.78378 29.2012 5.7287 29.2012C5.64608 29.2012 5.60936 29.0268 5.60936 28.6504C5.60936 28.1822 5.57264 28.0537 5.37987 27.8701L5.15956 27.6406H0.918543L0.450378 28.1088L0.487097 29.7336L0.514636 31.3584L0.845105 31.9551C1.21229 32.6252 1.71718 33.0566 2.39647 33.3045L2.85546 33.4697L4.24159 37.6189C5.74706 42.117 5.89393 42.4566 6.77518 43.2461C8.63866 44.926 11.3742 44.9352 13.2285 43.2736C13.9078 42.6586 14.3025 42.0068 14.7523 40.7217L15.1471 39.6201V41.8508L15.1562 44.0814L15.3857 44.3018L15.606 44.5312H29.3939L29.6142 44.3018L29.8437 44.0814L29.8529 41.8508V39.6201L30.2476 40.74C30.7066 42.0344 31.0463 42.6127 31.7164 43.2277C33.5799 44.926 36.3338 44.9443 38.1973 43.2736C39.0969 42.4658 39.2621 42.0986 40.7676 37.6006L42.1445 33.4697L42.5851 33.3045C43.2736 33.0658 43.8152 32.5977 44.1732 31.9459L44.4853 31.3584L44.5129 29.7336L44.5496 28.1088L44.0814 27.6406H39.8404L39.6201 27.8701C39.4273 28.0537 39.3906 28.1822 39.3906 28.6504C39.3906 29.0268 39.3539 29.2012 39.2805 29.2012C38.9959 29.2012 38.1514 29.6969 37.7016 30.11C37.1691 30.624 36.8203 31.2482 36.6 32.0928C36.4715 32.6068 35.2414 35.9758 35.0853 36.2603C35.0394 36.3338 34.7273 35.526 34.25 34.1215C33.4146 31.6246 33.1484 31.1014 32.3223 30.367C31.2299 29.3848 30.3027 29.1094 28.017 29.1094H26.4289L26.741 28.7605C27.5029 27.9252 28.0078 26.9705 28.2006 25.9975C28.3016 25.5477 28.3566 25.4375 28.4943 25.4375C28.9533 25.4375 29.449 25.1896 29.8896 24.749C30.7892 23.8586 30.8168 22.7111 29.9631 21.7656C29.5775 21.3434 28.9808 21.0312 28.5402 21.0312C28.4117 21.0312 28.375 20.9578 28.375 20.7283C28.3658 20.1225 28.0904 19.1219 27.7141 18.3691C26.5299 16.01 23.8402 14.734 21.2148 15.3031ZM23.5373 16.7627C24.9418 17.1299 26.0342 18.0846 26.5849 19.4248C26.7226 19.7553 26.6125 19.6635 25.5109 18.5711C24.5287 17.6164 24.2258 17.3594 24.0238 17.3594C23.8678 17.3594 22.6836 17.9652 20.967 18.9199C19.4248 19.7736 18.1488 20.4805 18.1396 20.4805C18.057 20.4805 18.3232 19.6084 18.5527 19.1219C19.3973 17.2951 21.6004 16.2578 23.5373 16.7627ZM26.9062 23.6475C26.9062 24.7582 26.8695 25.3732 26.7685 25.7588C26.1535 28.1088 23.7484 29.5684 21.4627 28.9717C19.8287 28.5494 18.5252 27.2 18.1855 25.5936C18.1305 25.3273 18.1029 24.4644 18.1121 23.6475L18.1396 22.1787L20.9853 20.5998L23.831 19.0117L26.9062 22.0869V23.6475ZM16.625 23.2344C16.625 23.8311 16.5975 23.9687 16.4873 23.9687C16.2394 23.9687 15.8906 23.5373 15.8906 23.2344C15.8906 22.9314 16.2394 22.5 16.4873 22.5C16.5975 22.5 16.625 22.6377 16.625 23.2344ZM28.8799 22.7295C29.0267 22.8672 29.1094 23.06 29.1094 23.2344C29.1094 23.5373 28.7605 23.9687 28.5127 23.9687C28.4025 23.9687 28.375 23.8311 28.375 23.2344C28.375 22.4082 28.476 22.3164 28.8799 22.7295ZM4.14061 29.6143C4.14061 30.266 4.39764 30.5781 4.93925 30.5781C5.47167 30.5781 6.19686 30.9637 6.51815 31.4135C7.00468 32.0744 7.05057 32.056 4.84745 32.0285L2.883 32.001L2.54335 31.7348C2.05682 31.3676 1.93749 31.0187 1.93749 29.9814V29.1094H4.14061V29.6143ZM43.0441 30.11C43.0166 31.1932 42.934 31.4043 42.3832 31.8082C42.1537 31.9826 41.9793 32.001 40.1617 32.0285C37.9494 32.056 37.9953 32.0744 38.4818 31.4135C38.8031 30.9637 39.5283 30.5781 40.0607 30.5781C40.6023 30.5781 40.8594 30.266 40.8594 29.6143V29.1094H43.0808L43.0441 30.11ZM17.8275 31.8357C18.1672 33.2219 18.3416 33.5156 18.8098 33.5156C18.9933 33.5156 19.2596 33.3687 19.6635 33.0475L20.251 32.5793L20.2969 37.6281C20.3428 42.4291 20.3519 42.6861 20.5172 42.8697L20.6916 43.0625H16.625V34.6998L16.3955 34.4795C16.1385 34.2133 15.7529 34.1857 15.4592 34.3877C15.3123 34.4887 14.9818 35.3607 14.1465 37.8852C12.8062 41.8967 12.6961 42.0895 11.4109 42.7137C9.91464 43.4389 8.16132 42.9432 7.22499 41.5295C7.05057 41.2725 5.42577 36.701 5.42577 36.4807C5.42577 36.4623 6.09589 36.4531 6.92206 36.4531H8.41835L8.91405 37.7934C9.41893 39.1795 9.57499 39.3906 10.0248 39.3906C10.5297 39.3906 10.6123 39.2162 11.7598 35.7646C12.9531 32.1754 13.1459 31.7898 13.9262 31.2207C14.5871 30.7525 15.2205 30.5873 16.4506 30.5873L17.5246 30.5781L17.8275 31.8357ZM19.9021 30.9912C19.6176 31.2207 19.3514 31.4043 19.3055 31.4043C19.2596 31.4043 19.1861 31.2207 19.131 30.9912L19.0392 30.5781H20.407L19.9021 30.9912ZM25.8689 30.9912C25.8139 31.2207 25.7404 31.4043 25.6945 31.4043C25.6486 31.4043 25.3824 31.2207 25.0978 30.9912L24.593 30.5781H25.9607L25.8689 30.9912ZM30.1283 30.7617C30.4496 30.8627 30.8994 31.0922 31.1289 31.2758C31.9092 31.9 32.056 32.2029 33.2402 35.7738C34.406 39.2713 34.4703 39.3906 34.9844 39.3906C35.425 39.3906 35.581 39.1703 36.0859 37.7934L36.5816 36.4531H38.0779C38.9041 36.4531 39.5742 36.4623 39.5742 36.4807C39.5742 36.6826 37.9586 41.2541 37.8025 41.4928C36.9855 42.7229 35.4617 43.3195 34.1123 42.934C33.5615 42.7687 33.2953 42.6311 32.8271 42.2547C32.1937 41.7406 32.001 41.3092 30.8535 37.8668C30.0182 35.3607 29.6877 34.4887 29.5408 34.3877C29.2471 34.1857 28.8615 34.2133 28.6045 34.4795L28.375 34.6998V43.0625H24.3084L24.4828 42.8697C24.648 42.6861 24.6572 42.4291 24.7031 37.6281L24.749 32.5793L25.3365 33.0475C25.7404 33.3687 26.0066 33.5156 26.1902 33.5156C26.6584 33.5156 26.8328 33.2219 27.1725 31.8357L27.4754 30.5781H28.5127C29.293 30.5781 29.6969 30.624 30.1283 30.7617ZM22.9223 31.1014L23.2344 31.3584V42.016L22.5 42.732L21.7656 42.016V31.3676L22.0685 31.1197C22.4357 30.7984 22.5275 30.7984 22.9223 31.1014ZM7.56464 34.1857C7.70233 34.5621 7.81249 34.8926 7.81249 34.9201C7.81249 34.9568 7.16073 34.9844 6.3621 34.9844H4.91171L4.43436 33.5156H7.30761L7.56464 34.1857ZM40.0883 34.9844H38.6379C37.8392 34.9844 37.1875 34.9568 37.1875 34.9201C37.1875 34.8926 37.2976 34.5621 37.4353 34.1857L37.6924 33.5156H40.5656L40.0883 34.9844Z" fill="white"/>
<path d="M19.5625 23.2344H21.0312V21.7656H19.5625V23.2344Z" fill="white"/>
<path d="M23.9687 23.2344H25.4375V21.7656H23.9687V23.2344Z" fill="white"/>
<path d="M21.0129 24.7123C20.7191 24.9143 20.4805 25.1162 20.4805 25.1621C20.4805 25.1988 20.664 25.4008 20.8935 25.6027C21.7931 26.3922 23.2068 26.3922 24.1064 25.6027C24.3359 25.4008 24.5195 25.1988 24.5195 25.1621C24.5195 25.1162 24.2717 24.9143 23.9687 24.7031L23.4271 24.3359L23.1242 24.5195C22.7387 24.749 22.2613 24.749 21.8758 24.5195C21.7105 24.4186 21.5728 24.3359 21.5545 24.3451C21.5453 24.3451 21.2974 24.5103 21.0129 24.7123Z" fill="white"/>
</svg>
