<svg width="34" height="44" viewBox="0 0 34 44" fill="none" xmlns="http://www.w3.org/2000/svg">
<path d="M0.531137 0.171875C-0.00167531 0.498437 0.0326998 -0.928125 0.0069185 19.3359C-0.010269 29.5711 0.0069185 38.1477 0.0326998 38.3969C0.0756685 38.732 0.153012 38.9297 0.333481 39.1273L0.574106 39.4023L4.54442 39.4539V41.2586C4.54442 43.2781 4.59598 43.5359 5.07723 43.8281C5.36083 44 5.47255 44 19.0249 44C32.4054 44 32.6975 44 32.964 43.8281C33.4968 43.5016 33.4624 44.9281 33.4882 24.6641C33.5054 14.4289 33.4882 5.85234 33.4624 5.60313C33.4194 5.26797 33.3421 5.07031 33.1616 4.87266L32.921 4.59766L28.9507 4.54609V2.74141C28.9507 0.721875 28.8991 0.464063 28.4179 0.171875C28.1343 0 28.0225 0 14.4702 0C1.08973 0 0.797544 0 0.531137 0.171875ZM28.0741 2.72422L28.0913 4.55469L16.6272 4.57188C5.30067 4.59766 5.16317 4.59766 4.97411 4.76953C4.51864 5.17344 4.54442 4.2625 4.54442 22.043V38.5859L2.72254 38.5688L0.892075 38.543L0.866294 19.8086C0.8577 9.50469 0.866294 1.02266 0.892075 0.9625C0.917856 0.876563 3.68504 0.859375 14.4874 0.876563L28.0483 0.902344L28.0741 2.72422ZM32.603 43.0977H5.44676L5.42098 24.3633C5.41239 14.0594 5.42098 5.57734 5.44676 5.51719C5.47254 5.43125 8.23973 5.41406 19.0421 5.43125L32.603 5.45703V43.0977Z" fill="#D9D9D9"/>
<path d="M0.531137 0.171875C-0.00167531 0.498437 0.0326998 -0.928125 0.0069185 19.3359C-0.010269 29.5711 0.0069185 38.1477 0.0326998 38.3969C0.0756685 38.732 0.153012 38.9297 0.333481 39.1273L0.574106 39.4023L4.54442 39.4539V41.2586C4.54442 43.2781 4.59598 43.5359 5.07723 43.8281C5.36083 44 5.47255 44 19.0249 44C32.4054 44 32.6975 44 32.964 43.8281C33.4968 43.5016 33.4624 44.9281 33.4882 24.6641C33.5054 14.4289 33.4882 5.85234 33.4624 5.60313C33.4194 5.26797 33.3421 5.07031 33.1616 4.87266L32.921 4.59766L28.9507 4.54609V2.74141C28.9507 0.721875 28.8991 0.464063 28.4179 0.171875C28.1343 0 28.0225 0 14.4702 0C1.08973 0 0.797544 0 0.531137 0.171875ZM28.0741 2.72422L28.0913 4.55469L16.6272 4.57188C5.30067 4.59766 5.16317 4.59766 4.97411 4.76953C4.51864 5.17344 4.54442 4.2625 4.54442 22.043V38.5859L2.72254 38.5688L0.892075 38.543L0.866294 19.8086C0.8577 9.50469 0.866294 1.02266 0.892075 0.9625C0.917856 0.876563 3.68504 0.859375 14.4874 0.876563L28.0483 0.902344L28.0741 2.72422ZM32.603 43.0977H5.44676L5.42098 24.3633C5.41239 14.0594 5.42098 5.57734 5.44676 5.51719C5.47254 5.43125 8.23973 5.41406 19.0421 5.43125L32.603 5.45703V43.0977Z" fill="#33FF99"/>
<path d="M10.7835 12.1344C9.63192 13.0711 9.48583 13.1656 9.40848 13.0281C9.20223 12.6758 8.90145 12.375 8.76395 12.375C8.56629 12.375 8.32567 12.6414 8.33426 12.8562C8.33426 13.1312 9.11629 14.2227 9.33114 14.2484C9.46004 14.2656 9.94989 13.9219 11.0241 13.0539C11.8577 12.3836 12.5796 11.7648 12.6311 11.6703C12.7515 11.4469 12.5194 11.0859 12.253 11.0859C12.1413 11.0859 11.5569 11.507 10.7835 12.1344Z" fill="#D9D9D9"/>
<path d="M10.7835 12.1344C9.63192 13.0711 9.48583 13.1656 9.40848 13.0281C9.20223 12.6758 8.90145 12.375 8.76395 12.375C8.56629 12.375 8.32567 12.6414 8.33426 12.8562C8.33426 13.1312 9.11629 14.2227 9.33114 14.2484C9.46004 14.2656 9.94989 13.9219 11.0241 13.0539C11.8577 12.3836 12.5796 11.7648 12.6311 11.6703C12.7515 11.4469 12.5194 11.0859 12.253 11.0859C12.1413 11.0859 11.5569 11.507 10.7835 12.1344Z" fill="#33FF99"/>
<path d="M13.4991 13.5094C13.3358 13.6727 13.3702 14.0766 13.5593 14.1797C13.671 14.2398 16.335 14.2656 21.5858 14.2656C29.0882 14.2656 29.4491 14.257 29.578 14.1109C29.7585 13.9133 29.7671 13.7156 29.5866 13.5438C29.4663 13.4234 28.6155 13.4063 21.5257 13.4063C15.4757 13.4063 13.5765 13.432 13.4991 13.5094Z" fill="#D9D9D9"/>
<path d="M13.4991 13.5094C13.3358 13.6727 13.3702 14.0766 13.5593 14.1797C13.671 14.2398 16.335 14.2656 21.5858 14.2656C29.0882 14.2656 29.4491 14.257 29.578 14.1109C29.7585 13.9133 29.7671 13.7156 29.5866 13.5438C29.4663 13.4234 28.6155 13.4063 21.5257 13.4063C15.4757 13.4063 13.5765 13.432 13.4991 13.5094Z" fill="#33FF99"/>
<path d="M10.7835 19.8687C9.63192 20.7969 9.48583 20.8914 9.40848 20.7539C9.19364 20.4016 8.90145 20.1094 8.75536 20.1094C8.54051 20.1094 8.32567 20.3414 8.33426 20.5648C8.33426 20.857 9.1077 21.9484 9.32254 21.9828C9.46004 22 9.95848 21.6477 11.0241 20.7883C11.8577 20.118 12.5796 19.4906 12.6311 19.4047C12.7514 19.1812 12.5194 18.8203 12.253 18.8203C12.1413 18.8203 11.5569 19.2414 10.7835 19.8687Z" fill="#D9D9D9"/>
<path d="M10.7835 19.8687C9.63192 20.7969 9.48583 20.8914 9.40848 20.7539C9.19364 20.4016 8.90145 20.1094 8.75536 20.1094C8.54051 20.1094 8.32567 20.3414 8.33426 20.5648C8.33426 20.857 9.1077 21.9484 9.32254 21.9828C9.46004 22 9.95848 21.6477 11.0241 20.7883C11.8577 20.118 12.5796 19.4906 12.6311 19.4047C12.7514 19.1812 12.5194 18.8203 12.253 18.8203C12.1413 18.8203 11.5569 19.2414 10.7835 19.8687Z" fill="#33FF99"/>
<path d="M13.4991 21.2438C13.3358 21.407 13.3702 21.8109 13.5593 21.9141C13.671 21.9742 16.335 22 21.5858 22C29.0882 22 29.4491 21.9914 29.578 21.8453C29.7585 21.6477 29.7671 21.45 29.5866 21.2781C29.4663 21.1578 28.6155 21.1406 21.5257 21.1406C15.4757 21.1406 13.5765 21.1664 13.4991 21.2438Z" fill="#D9D9D9"/>
<path d="M13.4991 21.2438C13.3358 21.407 13.3702 21.8109 13.5593 21.9141C13.671 21.9742 16.335 22 21.5858 22C29.0882 22 29.4491 21.9914 29.578 21.8453C29.7585 21.6477 29.7671 21.45 29.5866 21.2781C29.4663 21.1578 28.6155 21.1406 21.5257 21.1406C15.4757 21.1406 13.5765 21.1664 13.4991 21.2438Z" fill="#33FF99"/>
<path d="M10.8007 27.5859C10.1046 28.1531 9.51161 28.6172 9.49442 28.6172C9.46864 28.6172 9.36551 28.4625 9.26239 28.2734C9.05614 27.9125 8.85848 27.8008 8.58348 27.8867C8.26551 27.9898 8.27411 28.3164 8.62645 28.9008C9.04754 29.5883 9.17645 29.7344 9.36551 29.7344C9.54598 29.7344 12.5022 27.3883 12.6311 27.1391C12.7514 26.9156 12.5194 26.5547 12.253 26.5547C12.1413 26.5547 11.5569 26.9672 10.8007 27.5859Z" fill="#D9D9D9"/>
<path d="M10.8007 27.5859C10.1046 28.1531 9.51161 28.6172 9.49442 28.6172C9.46864 28.6172 9.36551 28.4625 9.26239 28.2734C9.05614 27.9125 8.85848 27.8008 8.58348 27.8867C8.26551 27.9898 8.27411 28.3164 8.62645 28.9008C9.04754 29.5883 9.17645 29.7344 9.36551 29.7344C9.54598 29.7344 12.5022 27.3883 12.6311 27.1391C12.7514 26.9156 12.5194 26.5547 12.253 26.5547C12.1413 26.5547 11.5569 26.9672 10.8007 27.5859Z" fill="#33FF99"/>
<path d="M13.4991 28.9781C13.3358 29.1414 13.3702 29.5453 13.5593 29.6484C13.671 29.7086 16.335 29.7344 21.5858 29.7344C29.0882 29.7344 29.4491 29.7258 29.578 29.5797C29.7585 29.382 29.7671 29.1844 29.5866 29.0125C29.4663 28.8922 28.6155 28.875 21.5257 28.875C15.4757 28.875 13.5765 28.9008 13.4991 28.9781Z" fill="#D9D9D9"/>
<path d="M13.4991 28.9781C13.3358 29.1414 13.3702 29.5453 13.5593 29.6484C13.671 29.7086 16.335 29.7344 21.5858 29.7344C29.0882 29.7344 29.4491 29.7258 29.578 29.5797C29.7585 29.382 29.7671 29.1844 29.5866 29.0125C29.4663 28.8922 28.6155 28.875 21.5257 28.875C15.4757 28.875 13.5765 28.9008 13.4991 28.9781Z" fill="#33FF99"/>
<path d="M10.7921 35.3203C10.096 35.8875 9.51161 36.3516 9.48583 36.3516C9.46864 36.3516 9.36551 36.1969 9.26239 36.0078C9.05614 35.6469 8.85848 35.5352 8.58348 35.6211C8.25692 35.7242 8.2827 36.0508 8.66942 36.6953C9.11629 37.4344 9.21942 37.5203 9.48583 37.4172C9.76942 37.3141 12.5882 35.0109 12.6569 34.8391C12.7343 34.6328 12.485 34.2891 12.253 34.2891C12.1413 34.2891 11.5655 34.693 10.7921 35.3203Z" fill="#D9D9D9"/>
<path d="M10.7921 35.3203C10.096 35.8875 9.51161 36.3516 9.48583 36.3516C9.46864 36.3516 9.36551 36.1969 9.26239 36.0078C9.05614 35.6469 8.85848 35.5352 8.58348 35.6211C8.25692 35.7242 8.2827 36.0508 8.66942 36.6953C9.11629 37.4344 9.21942 37.5203 9.48583 37.4172C9.76942 37.3141 12.5882 35.0109 12.6569 34.8391C12.7343 34.6328 12.485 34.2891 12.253 34.2891C12.1413 34.2891 11.5655 34.693 10.7921 35.3203Z" fill="#33FF99"/>
<path d="M13.4991 36.7125C13.3358 36.8758 13.3702 37.2797 13.5593 37.3828C13.671 37.443 16.335 37.4688 21.5858 37.4688C29.0882 37.4688 29.4491 37.4602 29.578 37.3141C29.7585 37.1164 29.7671 36.9188 29.5866 36.7469C29.4663 36.6266 28.6155 36.6094 21.5257 36.6094C15.4757 36.6094 13.5765 36.6352 13.4991 36.7125Z" fill="#D9D9D9"/>
<path d="M13.4991 36.7125C13.3358 36.8758 13.3702 37.2797 13.5593 37.3828C13.671 37.443 16.335 37.4688 21.5858 37.4688C29.0882 37.4688 29.4491 37.4602 29.578 37.3141C29.7585 37.1164 29.7671 36.9188 29.5866 36.7469C29.4663 36.6266 28.6155 36.6094 21.5257 36.6094C15.4757 36.6094 13.5765 36.6352 13.4991 36.7125Z" fill="#33FF99"/>
</svg>
