<svg width="34" height="44" viewBox="0 0 34 44" fill="none" xmlns="http://www.w3.org/2000/svg">
<path d="M0.783579 0.171875C0.250766 0.498437 0.285141 -0.928125 0.25936 19.3359C0.242172 29.5711 0.25936 38.1477 0.285141 38.3969C0.32811 38.732 0.405454 38.9297 0.585922 39.1273L0.826548 39.4023L4.79686 39.4539V41.2586C4.79686 43.2781 4.84842 43.5359 5.32967 43.8281C5.61327 44 5.72499 44 19.2773 44C32.6578 44 32.95 44 33.2164 43.8281C33.7492 43.5016 33.7148 44.9281 33.7406 24.6641C33.7578 14.4289 33.7406 5.85234 33.7148 5.60313C33.6719 5.26797 33.5945 5.07031 33.4141 4.87266L33.1734 4.59766L29.2031 4.54609V2.74141C29.2031 0.721875 29.1516 0.464063 28.6703 0.171875C28.3867 0 28.275 0 14.7226 0C1.34217 0 1.04998 0 0.783579 0.171875ZM28.3266 2.72422L28.3437 4.55469L16.8797 4.57188C5.55311 4.59766 5.41561 4.59766 5.22655 4.76953C4.77108 5.17344 4.79686 4.2625 4.79686 22.043V38.5859L2.97499 38.5688L1.14452 38.543L1.11874 19.8086C1.11014 9.50469 1.11874 1.02266 1.14452 0.9625C1.1703 0.876563 3.93748 0.859375 14.7398 0.876563L28.3008 0.902344L28.3266 2.72422ZM32.8555 43.0977H5.6992L5.67342 24.3633C5.66483 14.0594 5.67342 5.57734 5.6992 5.51719C5.72499 5.43125 8.49217 5.41406 19.2945 5.43125L32.8555 5.45703V43.0977Z" fill="white"/>
<path d="M11.0359 12.1344C9.88436 13.0711 9.73827 13.1656 9.66092 13.0281C9.45467 12.6758 9.15389 12.375 9.01639 12.375C8.81874 12.375 8.57811 12.6414 8.58671 12.8562C8.58671 13.1312 9.36874 14.2227 9.58358 14.2484C9.71249 14.2656 10.2023 13.9219 11.2765 13.0539C12.1101 12.3836 12.832 11.7648 12.8836 11.6703C13.0039 11.4469 12.7719 11.0859 12.5055 11.0859C12.3937 11.0859 11.8094 11.507 11.0359 12.1344Z" fill="white"/>
<path d="M13.7515 13.5094C13.5883 13.6727 13.6226 14.0766 13.8117 14.1797C13.9234 14.2398 16.5875 14.2656 21.8383 14.2656C29.3406 14.2656 29.7015 14.257 29.8305 14.1109C30.0109 13.9133 30.0195 13.7156 29.839 13.5438C29.7187 13.4234 28.868 13.4063 21.7781 13.4063C15.7281 13.4063 13.8289 13.432 13.7515 13.5094Z" fill="white"/>
<path d="M11.0359 19.8687C9.88436 20.7969 9.73827 20.8914 9.66092 20.7539C9.44608 20.4016 9.15389 20.1094 9.0078 20.1094C8.79295 20.1094 8.57811 20.3414 8.5867 20.5648C8.5867 20.857 9.36014 21.9484 9.57499 21.9828C9.71249 22 10.2109 21.6477 11.2765 20.7883C12.1101 20.118 12.832 19.4906 12.8836 19.4047C13.0039 19.1812 12.7719 18.8203 12.5055 18.8203C12.3937 18.8203 11.8094 19.2414 11.0359 19.8687Z" fill="white"/>
<path d="M13.7515 21.2438C13.5883 21.407 13.6226 21.8109 13.8117 21.9141C13.9234 21.9742 16.5875 22 21.8383 22C29.3406 22 29.7015 21.9914 29.8305 21.8453C30.0109 21.6477 30.0195 21.45 29.839 21.2781C29.7187 21.1578 28.868 21.1406 21.7781 21.1406C15.7281 21.1406 13.8289 21.1664 13.7515 21.2438Z" fill="white"/>
<path d="M11.0531 27.5859C10.357 28.1531 9.76405 28.6172 9.74686 28.6172C9.72108 28.6172 9.61795 28.4625 9.51483 28.2734C9.30858 27.9125 9.11092 27.8008 8.83592 27.8867C8.51795 27.9898 8.52655 28.3164 8.87889 28.9008C9.29998 29.5883 9.42889 29.7344 9.61795 29.7344C9.79842 29.7344 12.7547 27.3883 12.8836 27.1391C13.0039 26.9156 12.7719 26.5547 12.5055 26.5547C12.3937 26.5547 11.8094 26.9672 11.0531 27.5859Z" fill="white"/>
<path d="M13.7515 28.9781C13.5883 29.1414 13.6226 29.5453 13.8117 29.6484C13.9234 29.7086 16.5875 29.7344 21.8383 29.7344C29.3406 29.7344 29.7015 29.7258 29.8305 29.5797C30.0109 29.382 30.0195 29.1844 29.839 29.0125C29.7187 28.8922 28.868 28.875 21.7781 28.875C15.7281 28.875 13.8289 28.9008 13.7515 28.9781Z" fill="white"/>
<path d="M11.0445 35.3203C10.3484 35.8875 9.76405 36.3516 9.73827 36.3516C9.72108 36.3516 9.61795 36.1969 9.51483 36.0078C9.30858 35.6469 9.11092 35.5352 8.83592 35.6211C8.50936 35.7242 8.53514 36.0508 8.92186 36.6953C9.36874 37.4344 9.47186 37.5203 9.73827 37.4172C10.0219 37.3141 12.8406 35.0109 12.9094 34.8391C12.9867 34.6328 12.7375 34.2891 12.5055 34.2891C12.3937 34.2891 11.818 34.693 11.0445 35.3203Z" fill="white"/>
<path d="M13.7515 36.7125C13.5883 36.8758 13.6226 37.2797 13.8117 37.3828C13.9234 37.443 16.5875 37.4688 21.8383 37.4688C29.3406 37.4688 29.7015 37.4602 29.8305 37.3141C30.0109 37.1164 30.0195 36.9188 29.839 36.7469C29.7187 36.6266 28.868 36.6094 21.7781 36.6094C15.7281 36.6094 13.8289 36.6352 13.7515 36.7125Z" fill="white"/>
</svg>
