<svg width="45" height="45" viewBox="0 0 45 45" fill="none" xmlns="http://www.w3.org/2000/svg">
<path d="M16.4041 0.229492L16.1746 0.449805V11.3002L16.4041 11.5205L16.6244 11.75H27.4748L27.6951 11.5205L27.9246 11.3002V0.449805L27.6951 0.229492L27.4748 0H16.6244L16.4041 0.229492ZM26.4559 10.2812H17.6434V1.46875H26.4559V10.2812Z" fill="#D9D9D9"/>
<path d="M16.4041 0.229492L16.1746 0.449805V11.3002L16.4041 11.5205L16.6244 11.75H27.4748L27.6951 11.5205L27.9246 11.3002V0.449805L27.6951 0.229492L27.4748 0H16.6244L16.4041 0.229492ZM26.4559 10.2812H17.6434V1.46875H26.4559V10.2812Z" fill="#33FF99"/>
<path d="M19.1121 4.40625H20.5809V2.9375H19.1121V4.40625Z" fill="#D9D9D9"/>
<path d="M19.1121 4.40625H20.5809V2.9375H19.1121V4.40625Z" fill="#33FF99"/>
<path d="M19.1121 8.8125H20.5809V5.875H19.1121V8.8125Z" fill="#D9D9D9"/>
<path d="M19.1121 8.8125H20.5809V5.875H19.1121V8.8125Z" fill="#33FF99"/>
<path d="M5.34258 9.67539C3.35977 10.0977 1.63398 11.4103 0.761914 13.1453C0.201953 14.2744 0.0642579 14.8894 0.0734376 16.248C0.0826173 17.2303 0.119336 17.5057 0.321289 18.1299C0.670117 19.1855 1.14746 19.9475 1.99199 20.792C3.19453 21.9945 4.53477 22.6187 6.15957 22.7381C10.1436 23.0135 13.4666 19.7088 13.2004 15.7156C13.1453 14.7334 12.8057 13.6227 12.31 12.7781C11.8602 12.0254 10.6576 10.8412 9.90488 10.4189C8.54629 9.66621 6.75625 9.38164 5.34258 9.67539ZM7.60078 11.1166C8.48203 11.2727 9.55605 11.8418 10.2262 12.5119C11.2543 13.54 11.7225 14.6691 11.7225 16.1562C11.7225 17.625 11.2543 18.7725 10.2445 19.773C9.24395 20.7828 8.09649 21.251 6.62773 21.251C5.14063 21.251 4.01152 20.7828 2.9834 19.7547C0.816992 17.5883 1.06484 13.9531 3.51582 12.0988C4.71836 11.1809 6.12285 10.8504 7.60078 11.1166Z" fill="#D9D9D9"/>
<path d="M5.34258 9.67539C3.35977 10.0977 1.63398 11.4103 0.761914 13.1453C0.201953 14.2744 0.0642579 14.8894 0.0734376 16.248C0.0826173 17.2303 0.119336 17.5057 0.321289 18.1299C0.670117 19.1855 1.14746 19.9475 1.99199 20.792C3.19453 21.9945 4.53477 22.6187 6.15957 22.7381C10.1436 23.0135 13.4666 19.7088 13.2004 15.7156C13.1453 14.7334 12.8057 13.6227 12.31 12.7781C11.8602 12.0254 10.6576 10.8412 9.90488 10.4189C8.54629 9.66621 6.75625 9.38164 5.34258 9.67539ZM7.60078 11.1166C8.48203 11.2727 9.55605 11.8418 10.2262 12.5119C11.2543 13.54 11.7225 14.6691 11.7225 16.1562C11.7225 17.625 11.2543 18.7725 10.2445 19.773C9.24395 20.7828 8.09649 21.251 6.62773 21.251C5.14063 21.251 4.01152 20.7828 2.9834 19.7547C0.816992 17.5883 1.06484 13.9531 3.51582 12.0988C4.71836 11.1809 6.12285 10.8504 7.60078 11.1166Z" fill="#33FF99"/>
<path d="M5.70977 12.6129C5.48027 12.6771 5.18652 12.7873 5.04883 12.8607L4.80098 12.9893L5.14981 13.5859C5.35176 13.9256 5.55371 14.1734 5.62715 14.1643C5.70059 14.1459 5.94844 14.0908 6.19629 14.0266L6.62773 13.9072V12.4844L6.37988 12.4936C6.23301 12.4936 5.93926 12.5486 5.70977 12.6129Z" fill="#D9D9D9"/>
<path d="M5.70977 12.6129C5.48027 12.6771 5.18652 12.7873 5.04883 12.8607L4.80098 12.9893L5.14981 13.5859C5.35176 13.9256 5.55371 14.1734 5.62715 14.1643C5.70059 14.1459 5.94844 14.0908 6.19629 14.0266L6.62773 13.9072V12.4844L6.37988 12.4936C6.23301 12.4936 5.93926 12.5486 5.70977 12.6129Z" fill="#33FF99"/>
<path d="M3.22207 14.7977C3.04766 15.1924 3.01094 15.4494 3.00176 16.1654C3.00176 16.9916 3.02012 17.0742 3.34141 17.726C3.525 18.0932 3.80039 18.5154 3.94727 18.6623L4.21348 18.9102L5.16816 17.8086L4.90195 17.4689C4.42461 16.8539 4.30527 16.1562 4.55312 15.4402C4.70918 15.018 4.72754 15.0455 3.95645 14.6141L3.4332 14.3203L3.22207 14.7977Z" fill="#D9D9D9"/>
<path d="M3.22207 14.7977C3.04766 15.1924 3.01094 15.4494 3.00176 16.1654C3.00176 16.9916 3.02012 17.0742 3.34141 17.726C3.525 18.0932 3.80039 18.5154 3.94727 18.6623L4.21348 18.9102L5.16816 17.8086L4.90195 17.4689C4.42461 16.8539 4.30527 16.1562 4.55312 15.4402C4.70918 15.018 4.72754 15.0455 3.95645 14.6141L3.4332 14.3203L3.22207 14.7977Z" fill="#33FF99"/>
<path d="M37.0584 12.9709C30.55 16.6428 30.7061 16.5326 30.9172 17.1385C30.9906 17.3588 31.9453 17.9279 37.0584 20.8103C40.9047 22.9768 43.2088 24.2252 43.374 24.2344C43.5301 24.2344 43.7228 24.1426 43.8514 24.0049L44.0809 23.7846V9.99668L43.8514 9.77637C43.7228 9.63867 43.5301 9.54687 43.374 9.54687C43.2088 9.55605 40.9047 10.8045 37.0584 12.9709ZM42.5937 19.5527L42.5662 22.2057L37.8662 19.5711C35.2775 18.1207 33.1662 16.9182 33.1662 16.8906C33.1662 16.8631 35.2775 15.6605 37.8662 14.2102L42.5662 11.5756L42.5937 14.2285C42.6029 15.6973 42.6029 18.084 42.5937 19.5527Z" fill="#D9D9D9"/>
<path d="M37.0584 12.9709C30.55 16.6428 30.7061 16.5326 30.9172 17.1385C30.9906 17.3588 31.9453 17.9279 37.0584 20.8103C40.9047 22.9768 43.2088 24.2252 43.374 24.2344C43.5301 24.2344 43.7228 24.1426 43.8514 24.0049L44.0809 23.7846V9.99668L43.8514 9.77637C43.7228 9.63867 43.5301 9.54687 43.374 9.54687C43.2088 9.55605 40.9047 10.8045 37.0584 12.9709ZM42.5937 19.5527L42.5662 22.2057L37.8662 19.5711C35.2775 18.1207 33.1662 16.9182 33.1662 16.8906C33.1662 16.8631 35.2775 15.6605 37.8662 14.2102L42.5662 11.5756L42.5937 14.2285C42.6029 15.6973 42.6029 18.084 42.5937 19.5527Z" fill="#33FF99"/>
<path d="M38.9402 15.1557C38.0039 15.7156 37.2053 16.2021 37.1686 16.248C37.0951 16.3123 37.7193 17.4414 37.8387 17.4781C37.9396 17.4965 41.4187 15.376 41.4187 15.2934C41.4187 15.1832 40.7762 14.1367 40.7027 14.1367C40.666 14.1367 39.8766 14.5957 38.9402 15.1557Z" fill="#D9D9D9"/>
<path d="M38.9402 15.1557C38.0039 15.7156 37.2053 16.2021 37.1686 16.248C37.0951 16.3123 37.7193 17.4414 37.8387 17.4781C37.9396 17.4965 41.4187 15.376 41.4187 15.2934C41.4187 15.1832 40.7762 14.1367 40.7027 14.1367C40.666 14.1367 39.8766 14.5957 38.9402 15.1557Z" fill="#33FF99"/>
<path d="M20.7645 14.8344C19.1396 15.1832 17.5699 16.4041 16.8264 17.9004C16.4592 18.6623 16.1838 19.6629 16.1746 20.2596C16.1746 20.4799 16.1287 20.5625 16.0277 20.5625C15.0363 20.5625 13.9715 21.71 13.9715 22.7656C13.9715 23.8396 15.0363 24.9687 16.0553 24.9687C16.193 24.9687 16.248 25.0789 16.349 25.5287C16.5418 26.5018 17.0467 27.4564 17.8086 28.2918L18.1207 28.6406H16.5326C14.2469 28.6406 13.3197 28.916 12.2273 29.8982C11.4012 30.6326 11.135 31.1559 10.2996 33.6527C9.82227 35.0572 9.51016 35.865 9.46426 35.7916C9.3082 35.507 8.07812 32.1381 7.94961 31.624C7.62832 30.4031 6.92148 29.4668 5.93926 28.9986C5.63633 28.8518 5.3334 28.7324 5.27832 28.7324C5.1957 28.7324 5.15898 28.558 5.15898 28.1816C5.15898 27.7135 5.12227 27.585 4.92949 27.4014L4.70918 27.1719H0.468164L0 27.64L0.0367188 29.2648L0.0642578 30.8896L0.394727 31.4863C0.761914 32.1564 1.2668 32.5879 1.94609 32.8357L2.40508 33.001L3.79121 37.1502C5.29668 41.6482 5.44356 41.9879 6.32481 42.7773C8.18828 44.4572 10.9238 44.4664 12.7781 42.8049C13.4574 42.1898 13.8521 41.5381 14.302 40.2529L14.6967 39.1514V41.382L14.7059 43.6127L14.9354 43.833L15.1557 44.0625H28.9436L29.1639 43.833L29.3934 43.6127L29.4025 41.382V39.1514L29.7973 40.2713C30.2563 41.5656 30.5959 42.1439 31.266 42.759C33.1295 44.4572 35.8834 44.4756 37.7469 42.8049C38.6465 41.9971 38.8117 41.6299 40.3172 37.1318L41.6941 33.001L42.1348 32.8357C42.8232 32.5971 43.3648 32.1289 43.7229 31.4771L44.035 30.8896L44.0625 29.2648L44.0992 27.64L43.6311 27.1719H39.39L39.1697 27.4014C38.977 27.585 38.9402 27.7135 38.9402 28.1816C38.9402 28.558 38.9035 28.7324 38.8301 28.7324C38.5455 28.7324 37.701 29.2281 37.2512 29.6412C36.7188 30.1553 36.3699 30.7795 36.1496 31.624C36.0211 32.1381 34.791 35.507 34.635 35.7916C34.5891 35.865 34.277 35.0572 33.7996 33.6527C32.9643 31.1559 32.6981 30.6326 31.8719 29.8982C30.7795 28.916 29.8523 28.6406 27.5666 28.6406H25.9785L26.2906 28.2918C27.0525 27.4564 27.5574 26.5018 27.7502 25.5287C27.8512 25.0789 27.9063 24.9687 28.0439 24.9687C28.5029 24.9687 28.9986 24.7209 29.4393 24.2803C30.3389 23.3898 30.3664 22.2424 29.5127 21.2969C29.1271 20.8746 28.5305 20.5625 28.0898 20.5625C27.9613 20.5625 27.9246 20.4891 27.9246 20.2596C27.9154 19.6537 27.64 18.6531 27.2637 17.9004C26.0795 15.5412 23.3898 14.2652 20.7645 14.8344ZM23.0869 16.2939C24.4914 16.6611 25.5838 17.6158 26.1346 18.9561C26.2723 19.2865 26.1621 19.1947 25.0605 18.1023C24.0783 17.1477 23.7754 16.8906 23.5734 16.8906C23.4174 16.8906 22.2332 17.4965 20.5166 18.4512C18.9744 19.3049 17.6984 20.0117 17.6893 20.0117C17.6066 20.0117 17.8729 19.1396 18.1023 18.6531C18.9469 16.8264 21.15 15.7891 23.0869 16.2939ZM26.4559 23.1787C26.4559 24.2894 26.4191 24.9045 26.3182 25.29C25.7031 27.64 23.298 29.0996 21.0123 28.5029C19.3783 28.0807 18.0748 26.7312 17.7352 25.1248C17.6801 24.8586 17.6525 23.9957 17.6617 23.1787L17.6893 21.71L20.535 20.1311L23.3807 18.543L26.4559 21.6182V23.1787ZM16.1746 22.7656C16.1746 23.3623 16.1471 23.5 16.0369 23.5C15.7891 23.5 15.4402 23.0686 15.4402 22.7656C15.4402 22.4627 15.7891 22.0312 16.0369 22.0312C16.1471 22.0312 16.1746 22.1689 16.1746 22.7656ZM28.4295 22.2607C28.5764 22.3984 28.659 22.5912 28.659 22.7656C28.659 23.0686 28.3102 23.5 28.0623 23.5C27.9521 23.5 27.9246 23.3623 27.9246 22.7656C27.9246 21.9394 28.0256 21.8477 28.4295 22.2607ZM3.69023 29.1455C3.69023 29.7973 3.94727 30.1094 4.48887 30.1094C5.02129 30.1094 5.74648 30.4949 6.06777 30.9447C6.5543 31.6057 6.6002 31.5873 4.39707 31.5598L2.43262 31.5322L2.09297 31.266C1.60645 30.8988 1.48711 30.55 1.48711 29.5127V28.6406H3.69023V29.1455ZM42.5938 29.6412C42.5662 30.7244 42.4836 30.9355 41.9328 31.3394C41.7033 31.5139 41.5289 31.5322 39.7113 31.5598C37.499 31.5873 37.5449 31.6057 38.0314 30.9447C38.3527 30.4949 39.0779 30.1094 39.6104 30.1094C40.152 30.1094 40.409 29.7973 40.409 29.1455V28.6406H42.6305L42.5938 29.6412ZM17.3771 31.367C17.7168 32.7531 17.8912 33.0469 18.3594 33.0469C18.543 33.0469 18.8092 32.9 19.2131 32.5787L19.8006 32.1105L19.8465 37.1594C19.8924 41.9603 19.9016 42.2174 20.0668 42.401L20.2412 42.5937H16.1746V34.2311L15.9451 34.0107C15.6881 33.7445 15.3025 33.717 15.0088 33.9189C14.8619 34.0199 14.5314 34.892 13.6961 37.4164C12.3559 41.4279 12.2457 41.6207 10.9605 42.2449C9.46426 42.9701 7.71094 42.4744 6.77461 41.0607C6.6002 40.8037 4.97539 36.2322 4.97539 36.0119C4.97539 35.9935 5.64551 35.9844 6.47168 35.9844H7.96797L8.46367 37.3246C8.96856 38.7107 9.12461 38.9219 9.57441 38.9219C10.0793 38.9219 10.1619 38.7475 11.3094 35.2959C12.5027 31.7066 12.6955 31.3211 13.4758 30.7519C14.1367 30.2838 14.7701 30.1186 16.0002 30.1186L17.0742 30.1094L17.3771 31.367ZM19.4518 30.5225C19.1672 30.7519 18.901 30.9355 18.8551 30.9355C18.8092 30.9355 18.7357 30.7519 18.6807 30.5225L18.5889 30.1094H19.9566L19.4518 30.5225ZM25.4186 30.5225C25.3635 30.7519 25.29 30.9355 25.2441 30.9355C25.1982 30.9355 24.932 30.7519 24.6475 30.5225L24.1426 30.1094H25.5104L25.4186 30.5225ZM29.6779 30.293C29.9992 30.3939 30.449 30.6234 30.6785 30.807C31.4588 31.4312 31.6057 31.7342 32.7898 35.3051C33.9557 38.8025 34.0199 38.9219 34.534 38.9219C34.9746 38.9219 35.1307 38.7016 35.6355 37.3246L36.1313 35.9844H37.6275C38.4537 35.9844 39.1238 35.9935 39.1238 36.0119C39.1238 36.2139 37.5082 40.7854 37.3521 41.024C36.5352 42.2541 35.0113 42.8508 33.6619 42.4652C33.1111 42.3 32.8449 42.1623 32.3768 41.7859C31.7434 41.2719 31.5506 40.8404 30.4031 37.398C29.5678 34.892 29.2373 34.0199 29.0904 33.9189C28.7967 33.717 28.4111 33.7445 28.1541 34.0107L27.9246 34.2311V42.5937H23.858L24.0324 42.401C24.1977 42.2174 24.2068 41.9603 24.2527 37.1594L24.2986 32.1105L24.8861 32.5787C25.29 32.9 25.5563 33.0469 25.7398 33.0469C26.208 33.0469 26.3824 32.7531 26.7221 31.367L27.025 30.1094H28.0623C28.8426 30.1094 29.2465 30.1553 29.6779 30.293ZM22.4719 30.6326L22.784 30.8896V41.5473L22.0496 42.2633L21.3152 41.5473V30.8988L21.6182 30.651C21.9854 30.3297 22.0772 30.3297 22.4719 30.6326ZM7.11426 33.717C7.25195 34.0934 7.36211 34.4238 7.36211 34.4514C7.36211 34.4881 6.71035 34.5156 5.91172 34.5156H4.46133L3.98398 33.0469H6.85723L7.11426 33.717ZM39.6379 34.5156H38.1875C37.3889 34.5156 36.7371 34.4881 36.7371 34.4514C36.7371 34.4238 36.8473 34.0934 36.985 33.717L37.242 33.0469H40.1152L39.6379 34.5156Z" fill="#D9D9D9"/>
<path d="M20.7645 14.8344C19.1396 15.1832 17.5699 16.4041 16.8264 17.9004C16.4592 18.6623 16.1838 19.6629 16.1746 20.2596C16.1746 20.4799 16.1287 20.5625 16.0277 20.5625C15.0363 20.5625 13.9715 21.71 13.9715 22.7656C13.9715 23.8396 15.0363 24.9687 16.0553 24.9687C16.193 24.9687 16.248 25.0789 16.349 25.5287C16.5418 26.5018 17.0467 27.4564 17.8086 28.2918L18.1207 28.6406H16.5326C14.2469 28.6406 13.3197 28.916 12.2273 29.8982C11.4012 30.6326 11.135 31.1559 10.2996 33.6527C9.82227 35.0572 9.51016 35.865 9.46426 35.7916C9.3082 35.507 8.07812 32.1381 7.94961 31.624C7.62832 30.4031 6.92148 29.4668 5.93926 28.9986C5.63633 28.8518 5.3334 28.7324 5.27832 28.7324C5.1957 28.7324 5.15898 28.558 5.15898 28.1816C5.15898 27.7135 5.12227 27.585 4.92949 27.4014L4.70918 27.1719H0.468164L0 27.64L0.0367188 29.2648L0.0642578 30.8896L0.394727 31.4863C0.761914 32.1564 1.2668 32.5879 1.94609 32.8357L2.40508 33.001L3.79121 37.1502C5.29668 41.6482 5.44356 41.9879 6.32481 42.7773C8.18828 44.4572 10.9238 44.4664 12.7781 42.8049C13.4574 42.1898 13.8521 41.5381 14.302 40.2529L14.6967 39.1514V41.382L14.7059 43.6127L14.9354 43.833L15.1557 44.0625H28.9436L29.1639 43.833L29.3934 43.6127L29.4025 41.382V39.1514L29.7973 40.2713C30.2563 41.5656 30.5959 42.1439 31.266 42.759C33.1295 44.4572 35.8834 44.4756 37.7469 42.8049C38.6465 41.9971 38.8117 41.6299 40.3172 37.1318L41.6941 33.001L42.1348 32.8357C42.8232 32.5971 43.3648 32.1289 43.7229 31.4771L44.035 30.8896L44.0625 29.2648L44.0992 27.64L43.6311 27.1719H39.39L39.1697 27.4014C38.977 27.585 38.9402 27.7135 38.9402 28.1816C38.9402 28.558 38.9035 28.7324 38.8301 28.7324C38.5455 28.7324 37.701 29.2281 37.2512 29.6412C36.7188 30.1553 36.3699 30.7795 36.1496 31.624C36.0211 32.1381 34.791 35.507 34.635 35.7916C34.5891 35.865 34.277 35.0572 33.7996 33.6527C32.9643 31.1559 32.6981 30.6326 31.8719 29.8982C30.7795 28.916 29.8523 28.6406 27.5666 28.6406H25.9785L26.2906 28.2918C27.0525 27.4564 27.5574 26.5018 27.7502 25.5287C27.8512 25.0789 27.9063 24.9687 28.0439 24.9687C28.5029 24.9687 28.9986 24.7209 29.4393 24.2803C30.3389 23.3898 30.3664 22.2424 29.5127 21.2969C29.1271 20.8746 28.5305 20.5625 28.0898 20.5625C27.9613 20.5625 27.9246 20.4891 27.9246 20.2596C27.9154 19.6537 27.64 18.6531 27.2637 17.9004C26.0795 15.5412 23.3898 14.2652 20.7645 14.8344ZM23.0869 16.2939C24.4914 16.6611 25.5838 17.6158 26.1346 18.9561C26.2723 19.2865 26.1621 19.1947 25.0605 18.1023C24.0783 17.1477 23.7754 16.8906 23.5734 16.8906C23.4174 16.8906 22.2332 17.4965 20.5166 18.4512C18.9744 19.3049 17.6984 20.0117 17.6893 20.0117C17.6066 20.0117 17.8729 19.1396 18.1023 18.6531C18.9469 16.8264 21.15 15.7891 23.0869 16.2939ZM26.4559 23.1787C26.4559 24.2894 26.4191 24.9045 26.3182 25.29C25.7031 27.64 23.298 29.0996 21.0123 28.5029C19.3783 28.0807 18.0748 26.7312 17.7352 25.1248C17.6801 24.8586 17.6525 23.9957 17.6617 23.1787L17.6893 21.71L20.535 20.1311L23.3807 18.543L26.4559 21.6182V23.1787ZM16.1746 22.7656C16.1746 23.3623 16.1471 23.5 16.0369 23.5C15.7891 23.5 15.4402 23.0686 15.4402 22.7656C15.4402 22.4627 15.7891 22.0312 16.0369 22.0312C16.1471 22.0312 16.1746 22.1689 16.1746 22.7656ZM28.4295 22.2607C28.5764 22.3984 28.659 22.5912 28.659 22.7656C28.659 23.0686 28.3102 23.5 28.0623 23.5C27.9521 23.5 27.9246 23.3623 27.9246 22.7656C27.9246 21.9394 28.0256 21.8477 28.4295 22.2607ZM3.69023 29.1455C3.69023 29.7973 3.94727 30.1094 4.48887 30.1094C5.02129 30.1094 5.74648 30.4949 6.06777 30.9447C6.5543 31.6057 6.6002 31.5873 4.39707 31.5598L2.43262 31.5322L2.09297 31.266C1.60645 30.8988 1.48711 30.55 1.48711 29.5127V28.6406H3.69023V29.1455ZM42.5938 29.6412C42.5662 30.7244 42.4836 30.9355 41.9328 31.3394C41.7033 31.5139 41.5289 31.5322 39.7113 31.5598C37.499 31.5873 37.5449 31.6057 38.0314 30.9447C38.3527 30.4949 39.0779 30.1094 39.6104 30.1094C40.152 30.1094 40.409 29.7973 40.409 29.1455V28.6406H42.6305L42.5938 29.6412ZM17.3771 31.367C17.7168 32.7531 17.8912 33.0469 18.3594 33.0469C18.543 33.0469 18.8092 32.9 19.2131 32.5787L19.8006 32.1105L19.8465 37.1594C19.8924 41.9603 19.9016 42.2174 20.0668 42.401L20.2412 42.5937H16.1746V34.2311L15.9451 34.0107C15.6881 33.7445 15.3025 33.717 15.0088 33.9189C14.8619 34.0199 14.5314 34.892 13.6961 37.4164C12.3559 41.4279 12.2457 41.6207 10.9605 42.2449C9.46426 42.9701 7.71094 42.4744 6.77461 41.0607C6.6002 40.8037 4.97539 36.2322 4.97539 36.0119C4.97539 35.9935 5.64551 35.9844 6.47168 35.9844H7.96797L8.46367 37.3246C8.96856 38.7107 9.12461 38.9219 9.57441 38.9219C10.0793 38.9219 10.1619 38.7475 11.3094 35.2959C12.5027 31.7066 12.6955 31.3211 13.4758 30.7519C14.1367 30.2838 14.7701 30.1186 16.0002 30.1186L17.0742 30.1094L17.3771 31.367ZM19.4518 30.5225C19.1672 30.7519 18.901 30.9355 18.8551 30.9355C18.8092 30.9355 18.7357 30.7519 18.6807 30.5225L18.5889 30.1094H19.9566L19.4518 30.5225ZM25.4186 30.5225C25.3635 30.7519 25.29 30.9355 25.2441 30.9355C25.1982 30.9355 24.932 30.7519 24.6475 30.5225L24.1426 30.1094H25.5104L25.4186 30.5225ZM29.6779 30.293C29.9992 30.3939 30.449 30.6234 30.6785 30.807C31.4588 31.4312 31.6057 31.7342 32.7898 35.3051C33.9557 38.8025 34.0199 38.9219 34.534 38.9219C34.9746 38.9219 35.1307 38.7016 35.6355 37.3246L36.1313 35.9844H37.6275C38.4537 35.9844 39.1238 35.9935 39.1238 36.0119C39.1238 36.2139 37.5082 40.7854 37.3521 41.024C36.5352 42.2541 35.0113 42.8508 33.6619 42.4652C33.1111 42.3 32.8449 42.1623 32.3768 41.7859C31.7434 41.2719 31.5506 40.8404 30.4031 37.398C29.5678 34.892 29.2373 34.0199 29.0904 33.9189C28.7967 33.717 28.4111 33.7445 28.1541 34.0107L27.9246 34.2311V42.5937H23.858L24.0324 42.401C24.1977 42.2174 24.2068 41.9603 24.2527 37.1594L24.2986 32.1105L24.8861 32.5787C25.29 32.9 25.5563 33.0469 25.7398 33.0469C26.208 33.0469 26.3824 32.7531 26.7221 31.367L27.025 30.1094H28.0623C28.8426 30.1094 29.2465 30.1553 29.6779 30.293ZM22.4719 30.6326L22.784 30.8896V41.5473L22.0496 42.2633L21.3152 41.5473V30.8988L21.6182 30.651C21.9854 30.3297 22.0772 30.3297 22.4719 30.6326ZM7.11426 33.717C7.25195 34.0934 7.36211 34.4238 7.36211 34.4514C7.36211 34.4881 6.71035 34.5156 5.91172 34.5156H4.46133L3.98398 33.0469H6.85723L7.11426 33.717ZM39.6379 34.5156H38.1875C37.3889 34.5156 36.7371 34.4881 36.7371 34.4514C36.7371 34.4238 36.8473 34.0934 36.985 33.717L37.242 33.0469H40.1152L39.6379 34.5156Z" fill="#33FF99"/>
<path d="M19.1121 22.7656H20.5809V21.2969H19.1121V22.7656Z" fill="#D9D9D9"/>
<path d="M19.1121 22.7656H20.5809V21.2969H19.1121V22.7656Z" fill="#33FF99"/>
<path d="M23.5184 22.7656H24.9871V21.2969H23.5184V22.7656Z" fill="#D9D9D9"/>
<path d="M23.5184 22.7656H24.9871V21.2969H23.5184V22.7656Z" fill="#33FF99"/>
<path d="M20.5625 24.2436C20.2687 24.4455 20.0301 24.6475 20.0301 24.6934C20.0301 24.7301 20.2137 24.932 20.4432 25.134C21.3428 25.9234 22.7564 25.9234 23.6561 25.134C23.8855 24.932 24.0691 24.7301 24.0691 24.6934C24.0691 24.6475 23.8213 24.4455 23.5184 24.2344L22.9768 23.8672L22.6738 24.0508C22.2883 24.2803 21.8109 24.2803 21.4254 24.0508C21.2602 23.9498 21.1225 23.8672 21.1041 23.8764C21.0949 23.8764 20.8471 24.0416 20.5625 24.2436Z" fill="#D9D9D9"/>
<path d="M20.5625 24.2436C20.2687 24.4455 20.0301 24.6475 20.0301 24.6934C20.0301 24.7301 20.2137 24.932 20.4432 25.134C21.3428 25.9234 22.7564 25.9234 23.6561 25.134C23.8855 24.932 24.0691 24.7301 24.0691 24.6934C24.0691 24.6475 23.8213 24.4455 23.5184 24.2344L22.9768 23.8672L22.6738 24.0508C22.2883 24.2803 21.8109 24.2803 21.4254 24.0508C21.2602 23.9498 21.1225 23.8672 21.1041 23.8764C21.0949 23.8764 20.8471 24.0416 20.5625 24.2436Z" fill="#33FF99"/>
</svg>
