<svg width="26" height="44" viewBox="0 0 26 44" fill="none" xmlns="http://www.w3.org/2000/svg">
<path d="M12.2812 3.3125H13.7187V0.4375H12.2812V3.3125Z" fill="white"/>
<path d="M3.83587 3.77969L5.92024 5.82813L6.89055 4.82188L4.80618 2.77344L3.83587 3.77969Z" fill="white"/>
<path d="M20.0437 3.90547L19.1093 4.85782L20.1156 5.82813L22.164 3.74375L21.7507 3.34844C21.5171 3.13282 21.2476 2.95313 21.1577 2.95313C21.0679 2.95313 20.5648 3.38438 20.0437 3.90547Z" fill="white"/>
<path d="M8.23821 6.43906C7.8429 6.60078 7.21399 7.03203 6.85462 7.40938C4.87805 9.52969 5.74055 12.818 9.13665 16.1602C10.5382 17.5438 12.6046 19.125 13.0179 19.125C13.4132 19.125 15.6593 17.382 16.989 16.0344C20.3312 12.7102 21.1038 9.40391 19.0374 7.3375C17.564 5.84609 15.0124 5.84609 13.4132 7.31953L12.9999 7.67891L12.6046 7.31953C11.5265 6.33125 9.58587 5.95391 8.23821 6.43906ZM11.0234 7.98438C11.4187 8.18203 11.9218 8.63125 12.1554 8.97266C12.5866 9.6375 12.8562 9.81719 13.2335 9.67344C13.3413 9.6375 13.6288 9.31406 13.8445 8.97266C14.4195 8.11016 15.5515 7.55313 16.5398 7.67891C18.6601 7.9125 19.307 9.79922 18.121 12.243C17.564 13.357 15.5335 15.6031 13.9702 16.7891L12.9999 17.5438L12.0296 16.7891C10.5921 15.693 8.48977 13.4109 7.91477 12.3328C6.90852 10.4641 7.16009 8.61328 8.50774 7.94844C9.3343 7.53516 10.1609 7.53516 11.0234 7.98438Z" fill="white"/>
<path d="M0.781178 11.9375H3.65618V10.5H0.781178V11.9375Z" fill="white"/>
<path d="M22.3437 11.9375H25.2187V10.5H22.3437V11.9375Z" fill="white"/>
<path d="M0.224147 22.2875C-0.24304 22.8625 0.691335 26.6539 1.94915 29.2773C2.27258 29.9602 3.60227 32.0625 4.89602 33.9492L7.24993 37.3453V43.5625H8.68743V36.9141L6.24368 33.3742C3.2429 29.0078 2.07493 26.6359 1.73352 24.1922L1.62571 23.4195L3.13508 23.5273L3.63821 25.0008C4.23118 26.7258 4.91399 27.9656 6.47727 30.2117C8.25618 32.7812 8.02258 32.6734 12.7663 32.7453C17.9952 32.8172 17.6718 32.9609 20.0796 29.3672C21.2476 27.6242 22.0921 25.9531 22.5234 24.5156C22.8109 23.5453 22.8288 23.5273 23.5656 23.4734C24.482 23.4016 24.4999 23.4914 23.871 25.6656C23.2241 27.9297 22.2359 29.7625 19.6304 33.518L17.3124 36.8781V43.5625H18.7499V37.3273L20.9241 34.2008C24.0148 29.7266 25.2366 27.1391 25.7757 23.7969C26.0632 22.0719 25.9913 22 23.7812 22C22.5952 22 21.9663 22.0719 21.8585 22.2156C21.7687 22.3414 21.4273 23.2219 21.1038 24.1562C20.421 26.1508 19.8281 27.2469 18.3187 29.4031C17.4023 30.6969 16.7554 31.3438 16.3241 31.3438C16.2882 31.3438 16.4679 30.9664 16.7374 30.4813C17.3663 29.3852 17.4023 27.6781 16.8273 26.582C15.4437 23.9766 12.1015 23.3836 10.0531 25.3602C9.69368 25.7195 9.26243 26.2406 9.13665 26.5102C8.50774 27.7141 8.59758 29.6367 9.31633 30.6969C9.74758 31.3438 9.67571 31.5055 9.06477 31.1641C8.59758 30.9305 6.1179 27.175 5.48899 25.7734C5.20149 25.1266 4.82415 24.1203 4.64446 23.5273C4.48274 22.9344 4.24915 22.3414 4.1593 22.2156C3.8718 21.8742 0.529616 21.9102 0.224147 22.2875ZM14.6171 26.1328C15.246 26.582 15.8749 27.75 15.8749 28.4688C15.8749 29.1875 15.246 30.3555 14.6351 30.8047C12.5327 32.2961 9.71165 30.4273 10.1968 27.8398C10.3406 27.0852 11.0773 26.1687 11.832 25.8453C12.5866 25.4859 13.9163 25.6297 14.6171 26.1328Z" fill="white"/>
</svg>
